<svg width="166" height="120" viewBox="0 0 166 120" fill="none" xmlns="http://www.w3.org/2000/svg">
<path fill-rule="evenodd" clip-rule="evenodd" d="M144 85.921H156.643L164.641 78H152.008L144 85.921ZM158 87.4889V100L166 92.079V79.5679L158 87.4889Z" fill="#66E8FA"/>
<path d="M9.03387 88.7867L8.16218 96.7089H11.2131C12.6395 96.7089 13.7489 96.392 14.5017 95.7186C15.2149 95.0452 15.6508 94.0154 15.8093 92.629C15.9678 91.4406 15.6904 90.5296 15.0564 89.8166C14.4225 89.1432 13.4716 88.7867 12.2036 88.7867H9.03387ZM14.5017 111.721L9.50933 101.977H7.56784L6.4188 111.761H0L3.24902 83.5977H12.9565C15.0168 83.5977 16.8394 83.9542 18.3451 84.7464C19.8507 85.499 20.9602 86.5685 21.6337 87.9153C22.3073 89.262 22.5847 90.8465 22.3866 92.5894C22.1488 94.6491 21.4752 96.392 20.4054 97.7784C19.296 99.1648 17.9489 100.195 16.2847 100.908L22.1488 111.721H14.5017Z" fill="white"/>
<path d="M39.0675 99.2044L39.1071 98.6894C39.1864 96.2336 38.2354 94.966 36.294 94.966C35.977 94.966 35.6996 95.0056 35.3826 95.0848C35.1053 95.1641 34.7883 95.2433 34.511 95.4017C34.194 95.5602 33.9166 95.7582 33.6393 95.9959C33.3619 96.2336 33.1242 96.4712 32.8864 96.7881C32.6487 97.105 32.411 97.5011 32.2129 97.8972C32.0148 98.2933 31.8563 98.7291 31.6978 99.2044H39.0675ZM42.7524 105.384L42.158 110.533C41.4052 111.008 40.375 111.365 39.0675 111.603C37.7996 111.84 36.5713 111.959 35.343 111.959C33.0053 111.959 31.0638 111.484 29.4789 110.533C27.894 109.582 26.7846 108.275 26.1507 106.691C25.5167 105.067 25.3186 103.205 25.5563 101.145C25.9526 97.7784 27.1808 95.1245 29.2412 93.2231C31.3412 91.3218 33.7581 90.3711 36.5317 90.3711C39.3845 90.3711 41.5241 91.1634 42.9901 92.827C44.4561 94.4907 45.0108 96.9466 44.6542 100.274C44.575 100.868 44.3373 101.977 43.941 103.562H31.46C31.7374 104.71 32.3317 105.621 33.3223 106.255C34.2732 106.889 35.5015 107.206 36.9279 107.206C39.0675 107.206 41.009 106.612 42.7524 105.384Z" fill="white"/>
<path d="M56.1051 90.5296L55.7485 93.8569C56.1843 93.1439 56.739 92.5101 57.373 91.9952C58.0069 91.4802 58.7597 91.0841 59.5522 90.7673C60.3446 90.49 61.2163 90.3315 62.1276 90.3315C65.0993 90.3315 66.9615 91.6783 67.6351 94.3322C68.2691 93.1043 69.1804 92.114 70.3294 91.401C71.5181 90.688 72.8653 90.3315 74.3709 90.3315C76.4709 90.3315 78.0161 91.0049 79.0859 92.3517C80.1557 93.6985 80.552 95.5998 80.2746 98.1349L78.6897 111.721H72.5879L74.0539 99.1648C74.1728 97.9765 74.0539 97.0258 73.6577 96.3128C73.2615 95.6394 72.5879 95.2829 71.7162 95.2829C71.32 95.2829 70.9238 95.3621 70.5275 95.5206C70.1313 95.679 69.6955 95.9167 69.2596 96.2336C68.8238 96.5901 68.4672 97.1446 68.1502 97.8576C67.8332 98.6102 67.6351 99.5213 67.5163 100.551L66.2087 111.721H60.1069L61.5729 99.1648C61.6918 97.9765 61.5729 97.0258 61.1767 96.3128C60.7805 95.6394 60.1069 95.2829 59.2352 95.2829C58.7994 95.2829 58.4031 95.3621 58.0069 95.5206C57.6107 95.679 57.2145 95.9167 56.7786 96.2336C56.3428 96.5901 55.9862 97.1446 55.6296 97.8576C55.3126 98.6102 55.1145 99.5213 54.9956 100.551L53.7277 111.721H47.6259L50.0032 90.5296H56.1051Z" fill="white"/>
<path d="M83.7217 111.721L86.0991 90.5296H92.1613L89.7839 111.721H83.7217Z" fill="white"/>
<path d="M103.929 95.0056L102.82 104.75C102.701 105.542 102.859 106.097 103.256 106.493C103.652 106.889 104.206 107.047 104.92 107.047C105.989 107.047 107.02 106.77 107.971 106.216L107.416 111.286C106.306 111.721 104.88 111.92 103.137 111.92C98.3423 111.92 96.2027 109.543 96.7575 104.71L97.8669 95.0056H94.7763L95.2518 90.5296H98.3423L98.9367 85.5386H104.999L104.405 90.5296H109.357L108.882 95.0056H103.929Z" fill="white"/>
<path d="M116.965 111.405L111.14 90.5692H117.797L119.342 97.1842C119.738 98.8479 120.055 100.313 120.293 101.581C120.531 102.809 120.689 103.601 120.729 103.958L120.769 104.552C121.204 103.443 122.235 100.947 123.859 97.1446L126.712 90.5296H132.972L122.987 111.127C120.095 117.069 116.41 120 111.893 120C111.021 120 110.229 119.961 109.555 119.802L110.11 114.93C110.546 115.049 111.021 115.088 111.537 115.088C112.765 115.088 113.835 114.811 114.667 114.217C115.538 113.623 116.291 112.672 116.965 111.405Z" fill="white"/>
<path d="M141.729 90.5296L141.332 94.1342C141.808 93.3816 142.363 92.7082 142.997 92.1536C143.67 91.5991 144.423 91.1237 145.334 90.8069C146.206 90.49 147.157 90.3315 148.187 90.3315C150.366 90.3315 151.991 91.0049 153.061 92.2725C154.13 93.5796 154.527 95.481 154.249 97.9765L152.704 111.721H146.602L148.029 99.1252C148.147 97.8576 147.989 96.907 147.434 96.2732C146.919 95.6394 146.127 95.2829 145.097 95.2829C144.383 95.2829 143.71 95.481 143.115 95.8375C142.481 96.194 141.966 96.7881 141.491 97.5803C141.055 98.3726 140.738 99.3628 140.619 100.551L139.351 111.721H133.25L135.627 90.5296H141.729Z" fill="white"/>
<path d="M88.1092 81.0695C87.3564 81.7825 86.9205 82.6143 86.8017 83.565C86.6828 84.5553 86.9602 85.3871 87.5545 86.1001C88.1488 86.8131 88.9413 87.1696 89.9318 87.1696C90.9224 87.1696 91.7941 86.8131 92.5469 86.1001C93.3393 85.3871 93.7752 84.5553 93.8941 83.565C94.0129 82.6143 93.7752 81.7825 93.1412 81.0695C92.5073 80.3565 91.7148 80 90.7243 80C89.7733 80 88.9017 80.3565 88.1092 81.0695Z" fill="#66E8FA"/>
<rect x="51" width="65" height="65" rx="32.5" fill="#66E8FA"/>
<rect x="51" width="65" height="65" rx="32.5" fill="url(#paint0_linear_163_600)" fill-opacity="0.05"/>
<rect x="51" width="65" height="65" rx="32.5" fill="url(#paint1_radial_163_600)" fill-opacity="0.05"/>
<rect x="51.5" y="0.5" width="64" height="64" rx="32" stroke="url(#paint2_linear_163_600)" stroke-opacity="0.3"/>
<rect x="51.5" y="0.5" width="64" height="64" rx="32" stroke="url(#paint3_linear_163_600)" stroke-opacity="0.1"/>
<path d="M79.9297 27.0332L75.5312 32.433L73.978 34.3359L73.0663 35.4546L72.9991 35.5387C72.6182 35.9931 72.1391 36.3591 71.5965 36.61C71.0538 36.861 70.4611 36.9908 69.8611 36.9901H61.6571L66.063 31.5903L67.6237 29.6874L68.5336 28.5742L68.6063 28.4828C68.9853 28.0309 69.4614 27.6666 70.0006 27.416C70.5399 27.1654 71.1289 27.0347 71.7257 27.0332H79.9297Z" fill="#2E3539"/>
<path d="M96.4981 23.4176H76.4692C75.4439 23.4171 74.4595 23.0234 73.7264 22.3208L66.9637 15.6963H86.9908C87.5079 15.6951 88.0201 15.7942 88.4979 15.9881C88.9757 16.182 89.4096 16.4668 89.7746 16.826L96.4981 23.4176Z" fill="#2E3539"/>
<path d="M106.343 23.4189L99.6771 31.5881L99.623 31.6521C99.2568 32.0959 98.7944 32.4543 98.2694 32.7012C97.7443 32.9481 97.1698 33.0774 96.5875 33.0797H88.6222L92.892 27.8444L94.3986 26L96.498 23.4281L106.343 23.4189Z" fill="#2E3539"/>
<path d="M97.8293 46.935C97.8301 47.4876 97.7093 48.0338 97.475 48.5363L97.3501 48.7813L94.5346 54.3036L91.0573 49.6167L90.4121 48.7466L78.7773 33.0791H88.6222L97.0555 44.6556L97.1301 44.7561C97.5826 45.3964 97.8264 46.1561 97.8293 46.935Z" fill="#2E3539"/>
<defs>
<linearGradient id="paint0_linear_163_600" x1="83.5" y1="0" x2="83.5" y2="65" gradientUnits="userSpaceOnUse">
<stop stop-color="white"/>
<stop offset="1" stop-color="white" stop-opacity="0.8"/>
</linearGradient>
<radialGradient id="paint1_radial_163_600" cx="0" cy="0" r="1" gradientUnits="userSpaceOnUse" gradientTransform="translate(83.5) rotate(90) scale(65 32.5)">
<stop stop-color="white"/>
<stop offset="1" stop-color="white" stop-opacity="0"/>
</radialGradient>
<linearGradient id="paint2_linear_163_600" x1="75.8637" y1="-190.886" x2="207.581" y2="-57.8536" gradientUnits="userSpaceOnUse">
<stop stop-color="white"/>
<stop offset="1" stop-color="white" stop-opacity="0"/>
</linearGradient>
<linearGradient id="paint3_linear_163_600" x1="55.7746" y1="2.88714e-06" x2="58.6801" y2="32.2463" gradientUnits="userSpaceOnUse">
<stop stop-color="white"/>
<stop offset="0.379814" stop-color="white" stop-opacity="0"/>
</linearGradient>
</defs>
</svg>
