<svg width="64" height="64" viewBox="0 0 64 64" fill="none" xmlns="http://www.w3.org/2000/svg">
<path d="M64 32C64 27.7977 63.1723 23.6365 61.5641 19.7541C59.956 15.8717 57.5989 12.3441 54.6274 9.37258C51.6559 6.40111 48.1283 4.04401 44.2459 2.43585C40.3634 0.827704 36.2023 -1.83688e-07 32 0C27.7977 1.83688e-07 23.6365 0.827705 19.7541 2.43586C15.8717 4.04401 12.3441 6.40111 9.37258 9.37258C6.40111 12.3441 4.044 15.8717 2.43585 19.7541C0.827704 23.6366 -3.67377e-07 27.7977 0 32L32 32H64Z" fill="#FF7700"/>
<path d="M64 32C64 36.2023 63.1723 40.3635 61.5641 44.2459C59.956 48.1283 57.5989 51.6559 54.6274 54.6274C51.6559 57.5989 48.1283 59.956 44.2459 61.5641C40.3634 63.1723 36.2023 64 32 64C27.7977 64 23.6365 63.1723 19.7541 61.5641C15.8717 59.956 12.3441 57.5989 9.37258 54.6274C6.40111 51.6559 4.044 48.1283 2.43585 44.2459C0.827704 40.3634 -3.67377e-07 36.2023 0 32L32 32H64Z" fill="#1E5B00"/>
<mask id="mask0_167_637" style="mask-type:alpha" maskUnits="userSpaceOnUse" x="0" y="0" width="64" height="64">
<circle cx="32" cy="32" r="32" fill="white"/>
</mask>
<g mask="url(#mask0_167_637)">
<rect y="22" width="64" height="20" fill="white"/>
<circle cx="32" cy="32" r="8" fill="#191977"/>
<circle cx="32" cy="32" r="5" fill="#191977" stroke="white" stroke-width="3"/>
</g>
</svg>
